<mxfile host="app.diagrams.net" agent="Mozilla/5.0 (Windows NT 10.0; Win64; x64) AppleWebKit/537.36 (KHTML, like Gecko) Chrome/130.0.0.0 Safari/537.36" version="24.8.3">
  <diagram name="Page-1" id="G8S-ebVCdpwp3Wh-kXeA">
    <mxGraphModel dx="1434" dy="772" grid="1" gridSize="10" guides="1" tooltips="1" connect="1" arrows="1" fold="1" page="1" pageScale="1" pageWidth="827" pageHeight="1169" math="0" shadow="0">
      <root>
        <mxCell id="0" />
        <mxCell id="1" parent="0" />
        <mxCell id="_x0GU8yVqpLRFEi92Ow6-8" style="edgeStyle=orthogonalEdgeStyle;rounded=0;orthogonalLoop=1;jettySize=auto;html=1;exitX=1;exitY=0.5;exitDx=0;exitDy=0;" parent="1" source="_x0GU8yVqpLRFEi92Ow6-2" target="_x0GU8yVqpLRFEi92Ow6-6" edge="1">
          <mxGeometry relative="1" as="geometry" />
        </mxCell>
        <mxCell id="_x0GU8yVqpLRFEi92Ow6-9" style="edgeStyle=orthogonalEdgeStyle;rounded=0;orthogonalLoop=1;jettySize=auto;html=1;exitX=0.5;exitY=1;exitDx=0;exitDy=0;" parent="1" source="_x0GU8yVqpLRFEi92Ow6-2" target="_x0GU8yVqpLRFEi92Ow6-5" edge="1">
          <mxGeometry relative="1" as="geometry" />
        </mxCell>
        <mxCell id="_x0GU8yVqpLRFEi92Ow6-10" style="edgeStyle=orthogonalEdgeStyle;rounded=0;orthogonalLoop=1;jettySize=auto;html=1;" parent="1" source="_x0GU8yVqpLRFEi92Ow6-2" target="_x0GU8yVqpLRFEi92Ow6-4" edge="1">
          <mxGeometry relative="1" as="geometry" />
        </mxCell>
        <mxCell id="_x0GU8yVqpLRFEi92Ow6-2" value="Dashboard" style="rounded=1;whiteSpace=wrap;html=1;absoluteArcSize=1;arcSize=14;strokeWidth=2;" parent="1" vertex="1">
          <mxGeometry x="300" y="140" width="180" height="70" as="geometry" />
        </mxCell>
        <mxCell id="_x0GU8yVqpLRFEi92Ow6-14" value="" style="edgeStyle=orthogonalEdgeStyle;rounded=0;orthogonalLoop=1;jettySize=auto;html=1;" parent="1" source="_x0GU8yVqpLRFEi92Ow6-4" target="_x0GU8yVqpLRFEi92Ow6-13" edge="1">
          <mxGeometry relative="1" as="geometry" />
        </mxCell>
        <mxCell id="_x0GU8yVqpLRFEi92Ow6-17" value="" style="edgeStyle=orthogonalEdgeStyle;rounded=0;orthogonalLoop=1;jettySize=auto;html=1;" parent="1" source="_x0GU8yVqpLRFEi92Ow6-4" target="_x0GU8yVqpLRFEi92Ow6-16" edge="1">
          <mxGeometry relative="1" as="geometry" />
        </mxCell>
        <mxCell id="_x0GU8yVqpLRFEi92Ow6-19" style="edgeStyle=orthogonalEdgeStyle;rounded=0;orthogonalLoop=1;jettySize=auto;html=1;exitX=0;exitY=0.5;exitDx=0;exitDy=0;entryX=1;entryY=0.5;entryDx=0;entryDy=0;" parent="1" source="_x0GU8yVqpLRFEi92Ow6-4" target="_x0GU8yVqpLRFEi92Ow6-18" edge="1">
          <mxGeometry relative="1" as="geometry" />
        </mxCell>
        <mxCell id="_x0GU8yVqpLRFEi92Ow6-21" style="edgeStyle=orthogonalEdgeStyle;rounded=0;orthogonalLoop=1;jettySize=auto;html=1;exitX=0;exitY=0.5;exitDx=0;exitDy=0;entryX=1;entryY=0.5;entryDx=0;entryDy=0;" parent="1" source="_x0GU8yVqpLRFEi92Ow6-4" target="_x0GU8yVqpLRFEi92Ow6-20" edge="1">
          <mxGeometry relative="1" as="geometry" />
        </mxCell>
        <mxCell id="_x0GU8yVqpLRFEi92Ow6-23" style="edgeStyle=orthogonalEdgeStyle;rounded=0;orthogonalLoop=1;jettySize=auto;html=1;exitX=0;exitY=0.5;exitDx=0;exitDy=0;entryX=1;entryY=0.5;entryDx=0;entryDy=0;" parent="1" source="_x0GU8yVqpLRFEi92Ow6-4" target="_x0GU8yVqpLRFEi92Ow6-22" edge="1">
          <mxGeometry relative="1" as="geometry" />
        </mxCell>
        <mxCell id="_x0GU8yVqpLRFEi92Ow6-4" value="My&lt;div&gt;Dashboard&lt;/div&gt;" style="rounded=1;whiteSpace=wrap;html=1;absoluteArcSize=1;arcSize=14;strokeWidth=2;" parent="1" vertex="1">
          <mxGeometry x="180" y="290" width="100" height="100" as="geometry" />
        </mxCell>
        <mxCell id="_x0GU8yVqpLRFEi92Ow6-5" value="Company Dashboard" style="rounded=1;whiteSpace=wrap;html=1;absoluteArcSize=1;arcSize=14;strokeWidth=2;" parent="1" vertex="1">
          <mxGeometry x="340" y="290" width="100" height="100" as="geometry" />
        </mxCell>
        <mxCell id="_x0GU8yVqpLRFEi92Ow6-6" value="Annual&amp;nbsp;&lt;div&gt;Initiatives&lt;/div&gt;" style="rounded=1;whiteSpace=wrap;html=1;absoluteArcSize=1;arcSize=14;strokeWidth=2;" parent="1" vertex="1">
          <mxGeometry x="520" y="290" width="100" height="100" as="geometry" />
        </mxCell>
        <mxCell id="_x0GU8yVqpLRFEi92Ow6-12" style="edgeStyle=orthogonalEdgeStyle;rounded=0;orthogonalLoop=1;jettySize=auto;html=1;entryX=0.5;entryY=0;entryDx=0;entryDy=0;" parent="1" source="_x0GU8yVqpLRFEi92Ow6-11" target="_x0GU8yVqpLRFEi92Ow6-2" edge="1">
          <mxGeometry relative="1" as="geometry" />
        </mxCell>
        <mxCell id="_x0GU8yVqpLRFEi92Ow6-11" value="Start" style="strokeWidth=2;html=1;shape=mxgraph.flowchart.start_1;whiteSpace=wrap;" parent="1" vertex="1">
          <mxGeometry x="340" y="20" width="100" height="50" as="geometry" />
        </mxCell>
        <mxCell id="_x0GU8yVqpLRFEi92Ow6-13" value="Critical Numbers" style="whiteSpace=wrap;html=1;rounded=1;arcSize=14;strokeWidth=2;" parent="1" vertex="1">
          <mxGeometry x="20" y="310" width="120" height="60" as="geometry" />
        </mxCell>
        <mxCell id="_x0GU8yVqpLRFEi92Ow6-16" value="My KPI&#39;s" style="rounded=1;whiteSpace=wrap;html=1;arcSize=14;strokeWidth=2;" parent="1" vertex="1">
          <mxGeometry x="20" y="390" width="120" height="60" as="geometry" />
        </mxCell>
        <mxCell id="_x0GU8yVqpLRFEi92Ow6-18" value="My task" style="rounded=1;whiteSpace=wrap;html=1;arcSize=14;strokeWidth=2;" parent="1" vertex="1">
          <mxGeometry x="20" y="470" width="120" height="60" as="geometry" />
        </mxCell>
        <mxCell id="_x0GU8yVqpLRFEi92Ow6-20" value="My Priorities" style="rounded=1;whiteSpace=wrap;html=1;arcSize=14;strokeWidth=2;" parent="1" vertex="1">
          <mxGeometry x="20" y="554.5" width="120" height="60" as="geometry" />
        </mxCell>
        <mxCell id="_x0GU8yVqpLRFEi92Ow6-22" value="My Teams KPIs" style="rounded=1;whiteSpace=wrap;html=1;arcSize=14;strokeWidth=2;" parent="1" vertex="1">
          <mxGeometry x="20" y="640" width="120" height="60" as="geometry" />
        </mxCell>
      </root>
    </mxGraphModel>
  </diagram>
</mxfile>
